<svg width="21" height="22" viewBox="0 0 21 22" fill="none" xmlns="http://www.w3.org/2000/svg">
<path d="M5.90625 2.6875C6.3946 2.6875 6.87818 2.78369 7.32936 2.97057C7.78054 3.15746 8.19049 3.43138 8.53581 3.7767C8.88112 4.12201 9.15504 4.53197 9.34193 4.98315C9.52881 5.43433 9.625 5.9179 9.625 6.40625V10.125H5.90625C4.91998 10.125 3.9741 9.7332 3.2767 9.0358C2.5793 8.3384 2.1875 7.39252 2.1875 6.40625C2.1875 5.41998 2.5793 4.4741 3.2767 3.7767C3.9741 3.0793 4.91998 2.6875 5.90625 2.6875ZM7.875 8.375V6.40625C7.875 6.01687 7.75954 5.63623 7.54321 5.31247C7.32688 4.98871 7.0194 4.73637 6.65966 4.58736C6.29992 4.43835 5.90407 4.39936 5.52217 4.47533C5.14027 4.55129 4.78947 4.7388 4.51414 5.01413C4.2388 5.28947 4.0513 5.64027 3.97533 6.02217C3.89937 6.40407 3.93835 6.79992 4.08736 7.15966C4.23637 7.5194 4.48871 7.82688 4.81247 8.04321C5.13623 8.25953 5.51687 8.375 5.90625 8.375H7.875ZM5.90625 11.875H9.625V15.5938C9.625 16.3292 9.4069 17.0482 8.99828 17.6598C8.58966 18.2713 8.00887 18.748 7.32936 19.0294C6.64984 19.3109 5.90213 19.3845 5.18076 19.241C4.45939 19.0976 3.79677 18.7434 3.2767 18.2233C2.75662 17.7032 2.40245 17.0406 2.25896 16.3192C2.11547 15.5979 2.18911 14.8502 2.47057 14.1706C2.75204 13.4911 3.22868 12.9103 3.84022 12.5017C4.45177 12.0931 5.17075 11.875 5.90625 11.875ZM5.90625 13.625C5.51687 13.625 5.13623 13.7405 4.81247 13.9568C4.48871 14.1731 4.23637 14.4806 4.08736 14.8403C3.93835 15.2001 3.89937 15.5959 3.97533 15.9778C4.0513 16.3597 4.2388 16.7105 4.51414 16.9859C4.78947 17.2612 5.14027 17.4487 5.52217 17.5247C5.90407 17.6006 6.29992 17.5616 6.65966 17.4126C7.0194 17.2636 7.32688 17.0113 7.54321 16.6875C7.75954 16.3638 7.875 15.9831 7.875 15.5938V13.625H5.90625ZM15.0938 2.6875C16.08 2.6875 17.0259 3.0793 17.7233 3.7767C18.4207 4.4741 18.8125 5.41998 18.8125 6.40625C18.8125 7.39252 18.4207 8.3384 17.7233 9.0358C17.0259 9.7332 16.08 10.125 15.0938 10.125H11.375V6.40625C11.375 5.41998 11.7668 4.4741 12.4642 3.7767C13.1616 3.0793 14.1075 2.6875 15.0938 2.6875ZM15.0938 8.375C15.4831 8.375 15.8638 8.25953 16.1875 8.04321C16.5113 7.82688 16.7636 7.5194 16.9126 7.15966C17.0617 6.79992 17.1006 6.40407 17.0247 6.02217C16.9487 5.64027 16.7612 5.28947 16.4859 5.01413C16.2105 4.7388 15.8597 4.55129 15.4778 4.47533C15.0959 4.39936 14.7001 4.43835 14.3403 4.58736C13.9806 4.73637 13.6731 4.98871 13.4568 5.31247C13.2405 5.63623 13.125 6.01687 13.125 6.40625V8.375H15.0938ZM11.375 11.875H15.0938C15.8293 11.875 16.5482 12.0931 17.1598 12.5017C17.7713 12.9103 18.248 13.4911 18.5294 14.1706C18.8109 14.8502 18.8845 15.5979 18.741 16.3192C18.5976 17.0406 18.2434 17.7032 17.7233 18.2233C17.2032 18.7434 16.5406 19.0976 15.8192 19.241C15.0979 19.3845 14.3502 19.3109 13.6706 19.0294C12.9911 18.748 12.4103 18.2713 12.0017 17.6598C11.5931 17.0482 11.375 16.3292 11.375 15.5938V11.875ZM13.125 13.625V15.5938C13.125 15.9831 13.2405 16.3638 13.4568 16.6875C13.6731 17.0113 13.9806 17.2636 14.3403 17.4126C14.7001 17.5616 15.0959 17.6006 15.4778 17.5247C15.8597 17.4487 16.2105 17.2612 16.4859 16.9859C16.7612 16.7105 16.9487 16.3597 17.0247 15.9778C17.1006 15.5959 17.0617 15.2001 16.9126 14.8403C16.7636 14.4806 16.5113 14.1731 16.1875 13.9568C15.8638 13.7405 15.4831 13.625 15.0938 13.625H13.125Z" fill="#001F87"/>
</svg>
