<svg width="28" height="28" viewBox="0 0 28 28" fill="none" xmlns="http://www.w3.org/2000/svg">
<path d="M0.5 3.2C0.5 1.70883 1.70883 0.5 3.2 0.5H24.8C26.2912 0.5 27.5 1.70883 27.5 3.2V24.8C27.5 26.2912 26.2912 27.5 24.8 27.5H3.2C1.70883 27.5 0.5 26.2912 0.5 24.8V3.2Z" stroke="#CDD0D5"/>
<g clip-path="url(#clip0_2213_57887)">
<path d="M7.145 7.15767L16.5725 5.81142C16.6257 5.80378 16.6799 5.80768 16.7315 5.82284C16.7831 5.83799 16.8308 5.86406 16.8714 5.89927C16.912 5.93447 16.9446 5.978 16.9669 6.0269C16.9892 6.07579 17.0008 6.12892 17.0008 6.18267V21.8172C17.0007 21.8708 16.9892 21.9239 16.9669 21.9727C16.9447 22.0216 16.9122 22.0651 16.8716 22.1003C16.8311 22.1354 16.7835 22.1615 16.732 22.1767C16.6805 22.1919 16.6264 22.1959 16.5733 22.1884L7.14425 20.8422C6.96546 20.8167 6.80187 20.7276 6.68352 20.5912C6.56516 20.4548 6.5 20.2803 6.5 20.0997V7.90017C6.5 7.71958 6.56516 7.54505 6.68352 7.40865C6.80187 7.27225 6.96546 7.18313 7.14425 7.15767H7.145ZM8.00075 8.55117V19.4487L15.5008 20.5204V7.47942L8.00075 8.55117ZM17.7508 19.2499H20.0007V8.74992H17.7508V7.24992H20.7507C20.9497 7.24992 21.1404 7.32893 21.2811 7.46959C21.4217 7.61024 21.5007 7.801 21.5007 7.99992V19.9999C21.5007 20.1988 21.4217 20.3896 21.2811 20.5302C21.1404 20.6709 20.9497 20.7499 20.7507 20.7499H17.7508V19.2499ZM12.6508 13.9999L14.7508 16.9999H12.9508L11.7508 15.2854L10.5507 16.9999H8.75075L10.8507 13.9999L8.75075 10.9999H10.5507L11.7508 12.7144L12.9508 10.9999H14.7508L12.6508 13.9999Z" fill="#1545B2"/>
</g>
<defs>
<clipPath id="clip0_2213_57887">
<rect width="18" height="18" fill="white" transform="translate(5 5)"/>
</clipPath>
</defs>
</svg>
